/* XPM */
static char *graphic[] = {
"64 64 10 1",
". c #203C56",
", c #0D2B45",
"- c #06131F",
"* c #544E68",
"a c #000000",
"b c #A20000",
"c c #FF2828",
"d c #460000",
"e c #420000",
"f c #FF8D8D",
"............---,--,----.........------............---.-------...",
"...-.........------.......,.....................................",
"...,,........--,--.......,,..,...,,,,...,,,,,,,....,............",
".,,,,,,,,,,,.-----.,,,,,,,,,,,,,,,,,,,,,,,,,,,,,,,,,,,,,,,,,,,,,",
",,,,,,,,,,,,..----.,,,,-,,,,,,,,,,,,,,,,,,,,,,,,,,,,,,,,,,,,,,,,",
",,,,,--,,,,,,.----.,,,,--,,,,,,,,--,,,,,,,,,,,,,,,,,,,,,,,,,,,,,",
",,,,,,,-,,,,,.----.,,,,,,,,,,,,,,,,,,,,,,,,,,,,,,,,,,,,,,,,,,,,,",
",,,,,,,,,,,,,.----..,,,,,,,,,,,,,,,,,--,,,,,,,,,,,,,,,,,,,,,,,,,",
",,,,,,,,,-,,..----..,,,,,,,,,,,,,,,,,,,,,,,---,,,,,,,,,,,,,,,,,,",
",,,,,,,,,---,.----,.,,,,,,,,,,,,,,,,,,,,,,,,,-,,,,,,-,,,,,,,,,,,",
",,,,,,,,,,,,,.----,.,,,,,,,,,,,,,,,,,,,,,,,,,,,,,,,,-,,,,,,,,,,,",
",,,,,,-,,,,,..----..,,,,,,,,,,aa,,,,,,,,,,,,,-,,,,,,,,,,,,,,,,,,",
",,,,,,-,,,,,..----..,,-,,,,,,aefa,,,,,,,,,,,-,,,,,-,,,,,,,,,,,,,",
",,,,,--,,,,,..----..,,,-,,,,,aefa,,,,,,,,,,,,,,,,,,,,,,,,,,,,,,,",
",,,,,,,----..-----.-------,,adeffa----,,,,,,,,,,,,----,,,--,,,-,",
",-,---------.------------,--adeffa--------,,--------------------",
"---------------------------abdefffa-----------------------------",
"---------------------------abdefffa-----------------------------",
"--------------------------abbdeffffa----------------------------",
"-------------------------,abbdefbffa----------------------------",
"-------------------------abbbdefbbffa---------------------------",
"-........................abbbdefbbffa........---....-----------.",
"........---..,.,..,.....abbbbdefbbbffa,...,...-.......---.......",
"....,,,,,,,,,,,,,,,,,.,.abcbbdefbbbffa,,,,,,,,,,..,,,.....,,.,..",
".,,,,,,,,,,,,,,,,,,,,,,abbcbbdefbbbfffa,,,,,,,,,,,,,,,,,,,,,,,,,",
",,,,,,,,,,,,,,,,,,,,,,,abccbbdefbbbbffa,,,,,,,,,,,,,,-,,,,,,,,,,",
",,,,,,,,,,,,,,,,,,,,,,abbcccbdefbbbbfffa,,,,,,,,,,,,,,--,,,,,,,,",
",,,,,,,,,,,,,,,,,,,,,,abbcccbdefbbbffffa,,,,,,,,,,,,,,,,,,,,,,,,",
",--,,,,,,,,,,,,,,,,,,abcbcccbdefbbbfffffa,,,,,,,,,,,,,,,,,,,,,,,",
",,,,,,,,,,,,,,,,,,,,,abcccccbdefbbbfffffa,,,,,,,,,,,,,,,,,-,,,,,",
",,,,,--,,,,,,,,,,,,,abbcccccbdefbbfffffffa,,,--,,,,,,,,,,,-,,,,,",
",,,,,,,,,,,,,--,,,,,abbbccccbddfbbfffffffa,,,,,,,,,,,,,,,-,-,,,,",
",,,,,,,,,,,,-,,,,,,abbbbccccbddfbbffffffffa,,,,,,,,,,,,,,-,,,,,,",
",,,,,,,,,,,,,,,,,,,abbbbbbbdddeffbbbbbffffa,,,,,,,,,,,,,-,,,,,,,",
",,,,,,,,,,,,,,,,,,,accccbbbbbbbfbddddbdbbbd,,,,,,,,,,,,,,,,,,,,,",
",,,--,---,,,,,,,,,,acccbbbbbbbbfbdddddbdbba,,,,,,,,,,,,,,----,,,",
",---------,------,-accbbcbbbbbbfbdddddbbdba---,,,----,----------",
"--------------------acbcbbbbbbefbddddddbda----------------------",
"--------------------abbcbbbbbbefbddddddbba----------------------",
"---------------------abbbbbbbcefbdbbdddda-----------------------",
"---------------------abbbbbbccefbdbbdddda---,-------------------",
"----------------------abbbbbccefbdbbddda-----,------------------",
"--,.***.......-.,--,..abbbbcccefbdbbbdda,--------,..,,-,---,---,",
"*********.****,.......abbbbcccefbdbbbdda...-----,.,,,-,,,,,,,,,,",
"****...*.........,,...,abbccccefbdbbbda....------,.,,,,..,.,,,.,",
"*......,......,,,,,,,,,abbccccefbdbbbda,,,..-,--,,..............",
".......,......,,,,,,,,,,abccccefbdbbba,.,,*.-,--,,..............",
"..............,,,,,,,,,,acccccefbdbbba....**-,--.,..............",
"...............,,,,,,,,,,accccefbdbba,.....*--,-.,..............",
"................,,,,,,,,,accccefbdbba.....**----,,..............",
"................,,,,,,,,,,acccefbbba.......*----,...............",
".........,.......,,,,,,,,,acccefbbba........-,--,...............",
".........-........,.,,,,,,,accefbba........*-,--,*,.............",
"..................,..,,,,,,accefbba.......**-,--.*..............",
"............................acefba........**-,--,*..............",
"............................acefba........**-,-,,*........,.....",
".............................abfa......,..**-,,,,*..............",
"****...*....,.......,...,,,.,,aa.,.,,,,,,,**-,,,,.**..**...*..,.",
"*........,,,,,,,,,,..,,,,,,,.,,,,,,,,,,,,,,*--,,.....***********",
"****************.........-,,,,,-,,,,,,,,,,---,,,,.********.*****",
"***************..........-------------------,,,...*************.",
"**************....-...---------------,-------,,..*...*.........*",
",,..,,,.....,.---,-----.,,-,----,,,-,---------,,,...*.....****..",
",,,,,,,,,,,,,,*.-----------,----------,,,,.,,,,,-.......,,,,----"
};
