/* XPM */
static char *graphic[] = {
"64 64 10 1",
". c #203C56",
", c #0D2B45",
"- c #06131F",
"* c #544E68",
"a c #000000",
"b c #A20000",
"c c #FF2828",
"d c #460000",
"e c #420000",
"f c #FF8D8D",
"............---,--,----.........------............---.-------...",
"...-.........------.......,.....................................",
"...,,........--,--.......,,..,...,,,,...,,,,,,,....,............",
".,,,,,,,,,,,.-----.,,,,,,,,,,,,,,,,,,,,,,,,,,,,,,,,,,,,,,,,,,,,,",
",,,,,,,,,,,,..----.,,,,-,,,,,,,,,,,,,,,,,,,,,,,,,,,,,,,,,,,,,,,,",
",,,,,--,,,,,,.----.,,,,--,,,,,,,,--,,,,,,,,,,,,,,,,,,,,,,,,,,,,,",
",,,,,,,-,,,,,.----.,,,,,,,,,,,,,,,,,,,,,,,,,,,,,,,,,,,,,,,,,,,,,",
",,,,,,,,,,,,,.----..,,,,,,,,,,,,,,,,,--,,,,,,,,,,,,,,,,,,,,,,,,,",
",,,,,,,,,-,,..----..,,,,,,,,,,,,,,,,,,,,,,,---,,,,,,,,,,,,,,,,,,",
",,,,,,,,,---,.----,.,,,,,,,,,,,,,,,,,,,,,,,,,-,,,,,,-,,,,,,,,,,,",
",,,,,,,,,,,,,.----,.,,,,,,,,,,,,,,,,,,,,,,,,,,,,,,,,-,,,,,,,,,,,",
",,,,,,-,,,,,..----..,,,,,,,,,,,,,,,,,,,,,,,,,-,,,,,,,,,,,,,,,,,,",
",,,,,,-,,,,,..----..,,-,,,,,,,,,,,,,,,,,,,,,-,,,,,-,,,,,,,,,,,,,",
",,,,,--,,,,,..----..,,,-,,,,,,aa,,,,,,,,,,,,,,,,,,,,,,,,,,,,,,,,",
",,,,,,,----..-----.-------,,,aefa-----,,,,,,,,,,,,----,,,--,,,-,",
",-,---------.------------,---aeca---------,,--------------------",
"----------------------------adecfa------------------------------",
"----------------------------adecfa------------------------------",
"---------------------------abdecffa-----------------------------",
"-------------------------,-abdecffa-----------------------------",
"--------------------------abbdecfffa----------------------------",
"-........................-abbdecbffa.........---....-----------.",
"........---..,.,..,......abbbdecbfffa.,...,...-.......---.......",
"....,,,,,,,,,,,,,,,,,.,..abbbdecbbffa,,,,,,,,,,,..,,,.....,,.,..",
".,,,,,,,,,,,,,,,,,,,,,,,abbbbdefbbfffa,,,,,,,,,,,,,,,,,,,,,,,,,,",
",,,,,,,,,,,,,,,,,,,,,,,,abbbbdefbbfffa,,,,,,,,,,,,,,,-,,,,,,,,,,",
",,,,,,,,,,,,,,,,,,,,,,,abbbbbdefbfffffa,,,,,,,,,,,,,,,--,,,,,,,,",
",,,,,,,,,,,,,,,,,,,,,,,abbbbbdefbfbbffa-,,,,,,,,,,,,,,,,,,,,,,,,",
",--,,,,,,,,,,,,,,,,,,,abbbbcbdefbfbbfffa,,,,,,,,,,,,,,,,,,,,,,,,",
",,,,,,,,,,,,,,,,,,,,,,abbbbcbdecbfbffffa,,,,,,,,,,,,,,,,,,-,,,,,",
",,,,,--,,,,,,,,,,,,,,abbbbbcbdecbfbfffffa,,,,--,,,,,,,,,,,-,,,,,",
",,,,,,,,,,,,,--,,,,,-abccbbcbdefffbfffffa,,,,,,,,,,,,,,,,-,-,,,,",
",,,,,,,,,,,,-,,,,,,,abbcccbcbdeffbfffffffa,,,,,,,,,,,,,,,-,,,,,,",
",,,,,,,,,,,,,,,,,,,,abbbccccbddffbffbbbbfa,,,,,,,,,,,,,,-,,,,,,,",
",,,,,,,,,,,,,,,,,,,abccccbccbbbfdddbddddddd,,,,,,,,,,,,,,,,,,,,,",
",,,--,---,,,,,,,,,,accccbbccbbbfdddbbdbdddd,,,,,,,,,,,,,,----,,,",
",---------,------,-accccbccbbbbfbddbbbdbbbd---,,,----,----------",
"-------------------acccbbccbbbbfbddbbdbdbba---------------------",
"-------------------accbbcccbbbbfbddbbdbbdba---------------------",
"--------------------acbcbcbbbbefbddbbbdbda----------------------",
"--------------------abbcbcbbbbefbdddbbdbba--,-------------------",
"---------------------abbcbbbbcefbdddbbdda----,------------------",
"--,.***.......-.,--,.abbcbbbccefbdddbbdda--------,..,,-,---,---,",
"*********.****,.......abcbbbccefbdddbbba...-----,.,,,-,,,,,,,,,,",
"****...*.........,,...abcbbcccefbdddbdda...------,.,,,,..,.,,,.,",
"*......,......,,,,,,,,abbbbcccefbdddbdda,,..-,--,,..............",
".......,......,,,,,,,,,abbccccefbdddbda.,,*.-,--,,..............",
"..............,,,,,,,,,abbccccefbdddbda...**-,--.,..............",
"...............,,,,,,,,,abccccecbdddba.....*--,-.,..............",
"................,,,,,,,,acccccecbdddba....**----,,..............",
"................,,,,,,,,,accccecbddda......*----,...............",
".........,.......,,,,,,,,accccecbddda.......-,--,...............",
".........-........,.,,,,,,acccecbbbd.......*-,--,*,.............",
"..................,..,,,,,acccecbbba......**-,--.*..............",
"...........................accecbba.......**-,--,*..............",
"...........................accdcbba.......**-,-,,*........,.....",
"............................acdcba.....,..**-,,,,*..............",
"****...*....,.......,...,,,.acdcba.,,,,,,,**-,,,,.**..**...*..,.",
"*........,,,,,,,,,,..,,,,,,,.abca,,,,,,,,,,*--,,.....***********",
"****************.........-,,,,aa,,,,,,,,,,---,,,,.********.*****",
"***************..........-------------------,,,...*************.",
"**************....-...---------------,-------,,..*...*.........*",
",,..,,,.....,.---,-----.,,-,----,,,-,---------,,,...*.....****..",
",,,,,,,,,,,,,,*.-----------,----------,,,,.,,,,,-.......,,,,----"
};
