/* XPM */
static char *graphic[] = {
"64 64 10 1",
". c #203C56",
", c #0D2B45",
"- c #06131F",
"* c #544E68",
"a c #000000",
"b c #420000",
"c c #FF2828",
"d c #A20000",
"e c #460000",
"f c #FF8D8D",
"............---,--,----.........------............---.-------...",
"...-.........------.......,.....................................",
"...,,........--,--.......,,..,...,,,,...,,,,,,,....,............",
".,,,,,,,,,,,.-----.,,,,,,,,,,,,,,,,,,,,,,,,,,,,,,,,,,,,,,,,,,,,,",
",,,,,,,,,,,,..----.,,,,-,,,,,,,,,,,,,,,,,,,,,,,,,,,,,,,,,,,,,,,,",
",,,,,--,,,,,,.----.,,,,--,,,,,,,,--,,,,,,,,,,,,,,,,,,,,,,,,,,,,,",
",,,,,,,-,,,,,.----.,,,,,,,,,,,,,,,,,,,,,,,,,,,,,,,,,,,,,,,,,,,,,",
",,,,,,,,,,,,,.----..,,,,,,,,,,,,,,,,,--,,,,,,,,,,,,,,,,,,,,,,,,,",
",,,,,,,,,-,,..----..,,,,,,,,,,,,,,,,,,,,,,,---,,,,,,,,,,,,,,,,,,",
",,,,,,,,,---,.----,.,,,,,,,,,,aa,,,,,,,,,,,,,-,,,,,,-,,,,,,,,,,,",
",,,,,,,,,,,,,.----,.,,,,,,,,,abfa,,,,,,,,,,,,,,,,,,,-,,,,,,,,,,,",
",,,,,,-,,,,,..----..,,,,,,,,,abfa,,,,,,,,,,,,-,,,,,,,,,,,,,,,,,,",
",,,,,,-,,,,,..----..,,-,,,,,aebffa,,,,,,,,,,-,,,,,-,,,,,,,,,,,,,",
",,,,,--,,,,,..----..,,,-,,,,aebfca,,,,,,,,,,,,,,,,,,,,,,,,,,,,,,",
",,,,,,,----..-----.-------,adebfcca---,,,,,,,,,,,,----,,,--,,,-,",
",-,---------.------------,-adebfdca-------,,--------------------",
"--------------------------addebfdcfa----------------------------",
"--------------------------addebcdcca----------------------------",
"-------------------------adddebcddcfa---------------------------",
"-------------------------adddebcddffa---------------------------",
"------------------------addddebcdddffa--------------------------",
"-.......................adcddebcfddffa.......---....-----------.",
"........---..,.,..,....addcddebcfddfffa...,...-.......---.......",
"....,,,,,,,,,,,,,,,,,.,adccddebcfdddffa,,,,,,,,,..,,,.....,,.,..",
".,,,,,,,,,,,,,,,,,,,,,addcccdebffdddfffa,,,,,,,,,,,,,,,,,,,,,,,,",
",,,,,,,,,,,,,,,,,,,,,,addcccdebffddffffa,,,,,,,,,,,,,-,,,,,,,,,,",
",,,,,,,,,,,,,,,,,,,,,adcdcccdebfffdfffffa,,,,,,,,,,,,,--,,,,,,,,",
",,,,,,,,,,,,,,,,,,,,,adcccccdebfffdfffdfa,,,,,,,,,,,,,,,,,,,,,,,",
",--,,,,,,,,,,,,,,,,,addcccccdebffffffdddfa,,,,,,,,,,,,,,,,,,,,,,",
",,,,,,,,,,,,,,,,,,,,acccccccdeeffdfdddddfa,,,,,,,,,,,,,,,,-,,,,,",
",,,,,--,,,,,,,,,,,,accccccccdeeffddddddfdfa,,--,,,,,,,,,,,-,,,,,",
",,,,,,,,,,,,,--,,,,bccccccceeebfdddddddddfa,,,,,,,,,,,,,,-,-,,,,",
",,,,,,,,,,,,-,,,,,,bccccccdeeeefdddddddddfa,,,,,,,,,,,,,,-,,,,,,",
",,,,,,,,,,,,,,,,,,,bcccceeeebdddeebbbfffffa,,,,,,,,,,,,,-,,,,,,,",
",,,,,,,,,,,,,,,,,,,bccddccccdddcdeeeeeddeda,,,,,,,,,,,,,,,,,,,,,",
",,,--,---,,,,,,,,,,-acdccccdddbcdeeeeeedea,,,,,,,,,,,,,,,----,,,",
",---------,------,--addccccdddbcdeeeeeedda----,,,----,----------",
"---------------------addccddddbcdeeeeeeea-----------------------",
"---------------------addccddddbcdeeeeeeea-----------------------",
"----------------------accddddcbcdeeeeeea------------------------",
"----------------------accddcdcbcdeeedeea----,-------------------",
"----------------------addddcdcbcdeeedeea-----,------------------",
"--,.***.......-.,--,..-addcddcbcdeeedea,,--------,..,,-,---,---,",
"*********.****,........addcddcbcdeeedea....-----,.,,,-,,,,,,,,,,",
"****...*.........,,...,,adcdccbcdeeeda.....------,.,,,,..,.,,,.,",
"*......,......,,,,,,,,,,acddccbcdeeeda,,,,..-,--,,..............",
".......,......,,,,,,,,,,,addccbfdeeda.,.,,*.-,--,,..............",
"..............,,,,,,,,,,,adcccbfdedda,....**-,--.,..............",
"...............,,,,,,,,,,,acccbfddda,,.....*--,-.,..............",
"................,,,,,,,,,,acccbfddda......**----,,..............",
"................,,,,,,,,,,,accbfdda........*----,...............",
".........,.......,,,,,,,,,,accbfdda.........-,--,...............",
".........-........,.,,,,,,,,acbfda.........*-,--,*,.............",
"..................,..,,,,,,,acbfda........**-,--.*..............",
".............................adfa.........**-,--,*..............",
"..............................aa..........**-,-,,*........,.....",
".......................................,..**-,,,,*..............",
"****...*....,.......,...,,,.,,...,.,,,,,,,**-,,,,.**..**...*..,.",
"*........,,,,,,,,,,..,,,,,,,.,,,,,,,,,,,,,,*--,,.....***********",
"****************.........-,,,,,-,,,,,,,,,,---,,,,.********.*****",
"***************..........-------------------,,,...*************.",
"**************....-...---------------,-------,,..*...*.........*",
",,..,,,.....,.---,-----.,,-,----,,,-,---------,,,...*.....****..",
",,,,,,,,,,,,,,*.-----------,----------,,,,.,,,,,-.......,,,,----"
};
