/* XPM */
static char *graphic[] = {
"64 64 24 1",
". c #203C56",
", c #0D2B45",
"- c #161616",
"* c #544E68",
"a c #8E8E8E",
"b c #06131F",
"c c #606060",
"d c #585858",
"e c #505050",
"f c #4C4C4C",
"g c #484848",
"h c #797979",
"i c #181818",
"j c #444444",
"k c #3C3C3C",
"l c #343434",
"m c #2C2C2C",
"n c #282828",
"o c #626262",
"p c #202020",
"q c #101010",
"r c #0C0C0C",
"s c #010101",
"t c #040404",
"............bbb,bb,bbbb.........bbbbbb............bbb.bbbbbbb...",
"...b.........bbbbbb.......,.....................................",
"...,,........bb,bb.......,,..,...,,,,...,,,,,,,....,............",
".,,,,,,,,,,,.bbbbb.,,,,,,,,,,,,,,,,,,,,,,,,,,,,,,,,,,,,,,,,,,,,,",
",,,,,,,,,,,,..bbbb.,,,,b,,,,,,,,,,,,,,,,,,,,,,,,,,,,,,,,,,,,,,,,",
",,,,,bb,,,,,,.bbbb.,,,,bb,,,,,,,,bb,,,,,,,,,,,,,,,,,,,,,,,,,,,,,",
",,,,,,,b,,,,,.bbbb.,,,,,,,,,,,,,,,,,,,,,,,,,,,,,,,,,,,,,,,,,,,,,",
"----------------------------------------------------------------",
"-aaaaaaaaaaaaaaaaaaaaaaaaaaaaaaaaaaaaaaaaaaaaaaaaaaaaaaaaaaaaaa-",
"-aaaaaaaaaaaaaaaaaaaaaaaaaaaaaaaaaaaaaaaaaaaaaaaaaaaaaaaaaaaaaa-",
"-aaaaaaaaaaaaaaaaaaaaaaaaaaaaaaaaaaaaaaaaaaaaaaaaaaaaaaaaaaaaaa-",
"-aaaaaaaaaaaaaaaaaaaaaaaaaaaaaaaaaaaaaaaaaaaaaaaaaaaaaaaaaaaaaa-",
"-aaaaaaaaaaaaaaaaaaaaaaaaaaaaaaaaaaaaaaaaaaaaaaaaaaaaaaaaaaaaaa-",
"-aaaaaaaaa-------------------------------------------------aaaa-",
"-aaaaaaaaa-ccccccccccccccccccccccccccccccccccccccccccccccc-aaaa-",
"-aaaaaaaaa-b.bbbbbbbbbbbb,bbbbbbbbbbbbbbbb,,bbbbbbbbbbbbbb-aaaa-",
"-aaaaaaaaa-ddddddddddddddddddddddddddddddddddddddddddddddd-aaaa-",
"-aaaaaaaaa-bbbbbbbbbbbbbbbbbbbbbbbbbbbbbbbbbbbbbbbbbbbbbbb-aaaa-",
"-aaaaaaaaa-eeeeeeeeeeeeeeeeeeeeeeeeeeeeeeeeeeeeeeeeeeeeeee-aaaa-",
"-aaaaaaaaa-fffffffffffffffffffffffffffffffffffffffffffffff-aaaa-",
"-aaaaaaaaa-ggggggggggggggggggggggggggggggggggggggggggggggg-aaaa-",
"-aaaaaaaaa--------------jjjjjjjjjjjjjjjjjjjjjjjjjjjjjjjjjj-aaaa-",
"-aaaaaaaaa-hhhhhhhhhhhh-..bbbbbb,.....,...,...b.......bbb.-aaaa-",
"-aaaaaaaaa-hhhhhhhhhhhh-kkkkkkkkkkkkkkkkkkkkkkkkkkkkkkkkkk-aaaa-",
"-aaaaaaaaa-hhhhhhhhhhhh-,.,b,bb,.,,,,,,,,,,,,,,,,,,,,,,,,,-aaaa-",
"-aaaaaaaaa-hhhhhhhhhhhh-llllllllllllllllllllllllllllllllll-aaaa-",
"-aaaaaaaaa-hhhhhhhhhhhh-,,.bbbb.,,,,,,,,,,,,,,,,,,,,,,bb,,-aaaa-",
"-aaaaaaaaa-hhhhhhhhhhhh-mmmmmmmmmmmmmmmmmmmmmmmmmmmmmmmmmm-aaaa-",
"-aaaaaaaaa-hhhhhhhhhhhh-nnnnnnnnnnnnnnnnnnnnnnnnnnnnnnnnnn-aaaa-",
"-aaaaaaaaa-hhhhhhhhhhhh----i---i---,,,,,,,,,,,,,,,,,,,,,,,-aaaa-",
"-aaaaaaaaa-hhhhhhhhhhhh-cooocoooco-ppppppppppppppppppppppp-aaaa-",
"-aaaaaaaaa-hhhhhhhhhhhh-cooooooooo-,,,,,,,,,,,,,,,,,,,,,,b-aaaa-",
"-aaaaaaaaa-hhhhhhhhhhhh-oooooooooo-iiiii-iiiii-iiiiiiii-ii-aaaa-",
"-aaaaaaaaa-hhhhhhhhhhhh-oooooooooo---q-----q-----q--q---q--aaaa-",
"-aaaaaaaaa-hhhhhhhhhhhh-ooooooooooiqqqrqqqqqrqqqqqrqqqqqqq-aaaa-",
"-aaaaaaaaa-hhhhhhhhhhhh-oooooooooo-rrrrrrrrrrrrrrrrrrrrrrr-aaaa-",
"-aaaaaaaaa-hhhhhhhhhhhh-oooooooooo-------------sssssssssss-aaaa-",
"-aaaaaaaaa-hhhhhhhhhhhh-oooooooooc-efeefeffeff-bbrbbbbrbbr-aaaa-",
"-aaaaaaaaa-hhhhhhhhhhhh-oooooooooo-ffefefefefe-sssssssssss-aaaa-",
"-aaaaaaaaa-hhhhhhhhhhhhiooooooooooifefefefefef-sbbbbbbrbbb-aaaa-",
"-aaaaaaaaa-hhhhhhhhhhhh-ooooooooooifefefefeffe-bbbbbbbbbbb-aaaa-",
"-aaaaaaaaa-hhhhhhhhhhhh-oooooooooo-efefefefeef-sssssssssss-aaaa-",
"-aaaaaaaaa-hhhhhhhhhhhh-oooooooooo-fefefefeffe---------sst-aaaa-",
"-aaaaaaaaa-hhhhhhhhhhhh-oooooooooc-efefefefeef-k,.k,,b-ttt-aaaa-",
"-aaaaaaaaa-hhhhhhhhhhhh-oooooooooo-fefefefefef-bbk.kk,itts-aaaa-",
"-aaaaaaaaa-hhhhhhhhhhhh-ooooooooooiffefefefefeibk,k..k-sts-aaaa-",
"-aaaaaaaaa-hhhhhhhhhhhh-ooooooooooieefefefefefik,k.kk.-sts-aaaa-",
"-aaaaaaaaa-hhhhhhhhhhhh-ooooooocoo-ffefefefefe-bk,k...-stt-aaaa-",
"-aaaaaaaaa-------------------------------------------------aaaa-",
"-aaaaaaaaaaaaaaaaaaaaaaaaaaaaaaaaaaaaaaaaaaaaaaaaaaaaaaaaaaaaaa-",
"-aaaaaaaaaaaaaaaaaaaaaaaaaaaaaaaaaaaaaaaaaaaaaaaaaaaaaaaaaaaaaa-",
"-aaaaaaaaaaaaaaaaaaaaaaaaaaaaaaaaaaaaaaaaaaaaaaaaaaaaaaaaaaaaaa-",
"-aaaaaaaaaaaaaaaaaaaaaaaaaaaaaaaaaaaaaaaaaaaaaaaaaaaaaaaaaaaaaa-",
"-aaaaaaaaaaaaaaaaaaaaaaaaaaaaaaaaaaaaaaaaaaaaaaaaaaaaaaaaaaaaaa-",
"-aaaaaaaaaaaaaaaaaaaaaaaaaaaaaaaaaaaaaaaaaaaaaaaaaaaaaaaaaaaaaa-",
"-aaaaaaaaaaaaaaaaaaaaaaaaaaaaaaaaaaaaaaaaaaaaaaaaaaaaaaaaaaaaaa-",
"----------------------------------------------------------------",
"****...*....,.......,...,,,.,,...,.,,,,,,,**b,,,,.**..**...*..,.",
"*........,,,,,,,,,,..,,,,,,,.,,,,,,,,,,,,,,*bb,,.....***********",
"****************.........b,,,,,b,,,,,,,,,,bbb,,,,.********.*****",
"***************..........bbbbbbbbbbbbbbbbbbb,,,...*************.",
"**************....b...bbbbbbbbbbbbbbb,bbbbbbb,,..*...*.........*",
",,..,,,.....,.bbb,bbbbb.,,b,bbbb,,,b,bbbbbbbbb,,,...*.....****..",
",,,,,,,,,,,,,,*.bbbbbbbbbbb,bbbbbbbbbb,,,,.,,,,,b.......,,,,bbbb"
};
