/* XPM */
static char *graphic[] = {
"64 64 25 1",
". c #203C56",
", c #0D2B45",
"- c #06131F",
"* c #544E68",
"a c #000000",
"b c #0C0705",
"c c #040102",
"d c #070505",
"e c #624135",
"f c #251B19",
"g c #1E120E",
"h c #504027",
"i c #473730",
"j c #42200F",
"k c #9CF3D9",
"l c #975B5A",
"m c #1F120E",
"n c #D79993",
"o c #72634B",
"p c #644926",
"q c #190F0F",
"r c #A98D7A",
"s c #34230C",
"t c #C0A57A",
"u c #E7BB94",
"............---,--,----.........------............---.-------...",
"...-.........------.......,.....................................",
"...,,........--,--.......,,..,...,,,,...,,,,,,,....,............",
".,,,,,,,,,,,.-----.,,,,,,,,,,,,,,,,,,,,,,,,,,,,,,,,,,,,,,,,,,,,,",
",,,,,,,,,,,,..----.,,,,-,,,,,,,,,,,,,,,,,,,,,,,,,,,,,,,,,,,,,,,,",
",,,,,--,,,,,,.----.,,,,--,,,,,,,,--,,,,,,,,,,,,,,,,,,,,,,,,,,,,,",
",,,,,,,-,,,,,.----.,,,,,,,,,,,,,,,,,,,,,,,,,,,,,,,,,,,,,,,,,,,,,",
",,,,,,,,,,,,,.----..,,,,,,,,,,,,,,,,,--,,,,,,,,,,,,,,,,,,,,,,,,,",
",,,,,,,,,-,,..----..,,,,,,,,,,,,,,,,,,,,,,,---,,,,,,,,,,,,,,,,,,",
",,,,,,,,,---,.----,.,,,,,,,,,,,,,,,,,,,,,,,,,-,,,,,,-,,,,,,,,,,,",
",,,,,,,,,,,,,.----,.,,,,,,,,,,,,,,,,,,,,,,,,,,,,,,,,-,,,,,,,,,,,",
",,,,,,-,,,,,..----..,,,,,,,,,,,,,,,,,,,,,,,,,-,,,,,,,,,,,,,,,,,,",
",,,,,,-,,,,,..----..,,-,,,,,,,,,,,,,,,,,,,,,-,,,,,-,,,,,,,,,,,,,",
",,,,,--,,,,,..----..,,,-,,,,,,,,,,,,,,,,,,,,,,,,,,,,,,,,,,,,,,,,",
",,,,,,,----..-----.-------,,,,,-------,,,,,,,,,,,,----,,,--,,,-,",
",-,---------.------------,----------------,,--------------------",
"----------------------------------------------------------------",
"----------------------------------------------------------------",
"----------------------------------------------------------------",
"-------------------------,--,-----------------------------------",
"----------------------------------------------------------------",
"-........................---,----,...........---....-----------.",
"........---..,.,..,.......------,.....,...,...-.......---.......",
"....,,,,,,,,,,,,,,,,,.,....-,--,.,..,,,,,,,,,,,,..,,,.....,,.,..",
".,,,,,,,,,,,,,,,,,,,,,,,,.,-,--,.,,,,,,,,,,,,,,,,,,,,,,,,,,,,,,,",
",,,,,,,,,,,,,,,,,,,,,,,,,,.----.,,,,,,,,,,,,,,,,,,,,,-,,,,,,,,,,",
",,,,,,,,,,,,,,,,,,,,,,,,,,.----.,,,,,,,,,,,,,,,,,,,,,,--,,,,,,,,",
",,,,,,,,,,,,,,,,,,,,,,,,,..----.,,,,,,,-,,,,,,,,,,,,,,,,,,,,,,,,",
",--,,,,,,,,,,,,,,,,,,,,,,..----..,,,,,,-,,,,,,,,,,,,,,,,,,,,,,,,",
",,,,,,,,,,,,,,,,,,,,,,,,,,.----..,,,,,,,,,,,,,,,,,,,,,,,,,-,,,,,",
",,,,,--,,,,,,,,,,,,,,,,,,..-,--,.,,,,,,,,,,,,--,,,,,,,,,,,-,,,,,",
",,,,,,,,,,,,,--,,,,,--,,,,.----..,,,,,,,,,,,,,,,,,,,,,,,,-,-,,,,",
",,,,,,,,,,,,-,,,,,,,,,,,,,.----.,,,,,,,,,,,,,,,,,,,,,,,,,-,,,,,,",
",,,,,,,,,aa,aa,,,,,,,,,,,..----..,,,,,,,,,,,,,,,,,,,,,,,-,,,,,,,",
",,,,,,,,,adaana,,,,,,--,,..----..,,-,,,,,,,,,,,,,,,,,,,,,,,,,,,,",
",,,--,---adadlna,,,-------.----.----,,,,,,,,,,,,,,,,,,,,,----,,,",
",--------abaminia,-aaaaa----------------------,,,----,----------",
"--------cbbdfmllfaamelibaaa----------aaaaaa---------------------",
"-------cabfdfmilffifeeffllbaa------aadgggbdaaa------------------",
"------caggffifilfifeeeileiffbaaaaaabfiiiiiifgbaa----------------",
"------afeleiiiiieiieeeieeffeeefbbbfiiiiiellleeibd---------------",
"-----ccjfcgfiiiieiieeeieeieeeeeeiiiiiiiieeeeeeeigaa-------------",
"--,aabbakaeiiiiieeieeeeeeieeeeeeiiiiiiiiieeeeeeefdda,,-,---,---,",
"*aabgfgilhiiiiieeiiieeieeeeeeeeiiiiiiiieeeeeeeeeigda,-,,,,,,,,,,",
"abcbefffielliielfiiiiiieeeelleeeeeeeeeeeeeeeeeeeifbga,,..,.,,,.,",
"acdehheeieeeeelffiiiiieeeeeelleeeeeeeeeeeeeeeeeeiibgb...........",
".aeeiifggffieeeffiiiieeeeefeeeeeeeeeeeeieeeeeeeeiigifaa.........",
"..afbbbfffiiiiffiiiifeeeeefggfiieeeeeeeieeeeeeeeifgiefbaaa..aaa.",
"...aaaaaabbfififiiiefeeeeeggieeeeeiiiiiieeeelleiigafieefbbaada..",
"...........abifegifeeleeebfiieeleeeibbbbfellleeifa.afiiiieiida..",
"............aebeggiellleebgiiieeeeiddgffbfelleefda..aaeeefgda...",
".........,..abdfgbfellleegbfiiiiigbdddbfffeelefda.....aaaaaa....",
".........-...addddgilleeegbbfiifbaaadabbifeeiifd,*,.............",
"..............aaddbfeleeeddaaaaaa...abgabiieiibaa*..............",
"................adbbadgefa...........adggaglliffaa..............",
".................agbdaeefa............abgbableegtpa.......,.....",
".................aggdaeega.............dadgaadeiuua.............",
"****...*....,....apqastosa,.,,...,.,,,,,apoqqasruqa*..**...*..,.",
"*........,,,,,,,aqoqapopa,,,.,,,,,,,,,,aqooqaappsa...***********",
"***************aooaaopsaa-,,,,,-,,,,,aappqaaspoaa.********.*****",
"**************apoasoopa..----------appooaaqpooa...*************.",
"*************aooarttrpa-----------aoooopapooosa..*...*.........*",
",,..,,,.....,aooaotota-.,,-,----,,arqrsaauqursa,,...*.....****..",
",,,,,,,,,,,,,aaaaaaaaa-----,------aaaaaaaaaaaa,,-.......,,,,----"
};
