/* XPM */
static char *graphic[] = {
"64 64 25 1",
". c #203C56",
", c #0D2B45",
"- c #06131F",
"* c #544E68",
"a c #000000",
"b c #040102",
"c c #0C0705",
"d c #070505",
"e c #624135",
"f c #504027",
"g c #473730",
"h c #1E120E",
"i c #251B19",
"j c #42200F",
"k c #9CF3D9",
"l c #975B5A",
"m c #72634B",
"n c #1F120E",
"o c #644926",
"p c #D79993",
"q c #190F0F",
"r c #A98D7A",
"s c #34230C",
"t c #C0A57A",
"u c #E7BB94",
"............---,--,----.........------............---.-------...",
"...-.........------.......,.....................................",
"...,,........--,--.......,,..,...,,,,...,,,,,,,....,............",
".,,,,,,,,,,,.-----.,,,,,,,,,,,,,,,,,,,,,,,,,,,,,,,,,,,,,,,,,,,,,",
",,,,,,,,,,,,..----.,,,,-,,,,,,,,,,,,,,,,,,,,,,,,,,,,,,,,,,,,,,,,",
",,,,,--,,,,,,.----.,,,,--,,,,,,,,--,,,,,,,,,,,,,,,,,,,,,,,,,,,,,",
",,,,,,,-,,,,,.----.,,,,,,,,,,,,,,,,,,,,,,,,,,,,,,,,,,,,,,,,,,,,,",
",,,,,,,,,,,,,.----..,,,,,,,,,,,,,,,,,--,,,,,,,,,,,,,,,,,,,,,,,,,",
",,,,,,,,,-,,..----..,,,,,,,,,,,,,,,,,,,,,,,---,,,,,,,,,,,,,,,,,,",
",,,,,,,,,---,.----,.,,,,,,,,,,,,,,,,,,,,,,,,,-,,,,,,-,,,,,,,,,,,",
",,,,,,,,,,,,,.----,.,,,,,,,,,,,,,,,,,,,,,,,,,,,,,,,,-,,,,,,,,,,,",
",,,,,,-,,,,,..----..,,,,,,,,,,,,,,,,,,,,,,,,,-,,,,,,,,,,,,,,,,,,",
",,,,,,-,,,,,..----..,,-,,,,,,,,,,,,,,,,,,,,,-,,,,,-,,,,,,,,,,,,,",
",,,,,--,,,,,..----..,,,-,,,,,,,,,,,,,,,,,,,,,,,,,,,,,,,,,,,,,,,,",
",,,,,,,----..-----.-------,,,,,-------,,,,,,,,,,,,----,,,--,,,-,",
",-,---------.------------,----------------,,--------------------",
"----------------------------------------------------------------",
"----------------------------------------------------------------",
"----------------------------------------------------------------",
"-------------------------,--,-----------------------------------",
"----------------------------------------------------------------",
"-........................---,----,...........---....-----------.",
"........---..,.addaa......------,.....,...,...-.......---.......",
"....,,,,,,,,,,aacaa,,.,....-,--,.,..,,,,,,,,,,,,..,,,.....,,.,..",
".,,,,,,,,,,babccdadaaaaa,.,-,--,.,,,,,,,,,,,,,,,,,,,,,,,,,,,,,,,",
",,,,,,,,,,aahcidinggggga,,.----.,,,,,,,,,,,,,,,,,,,,,-,,,,,,,,,,",
",,,,aaaaabbiehiiginglpa,,,.----.,,,,,,,,,,,,,,,,,,,,,,--,,,,,,,,",
",,,acbchccajileggngpia,,,..----.,,,,,,,-,,,,,,,,,,,,,,,,,,,,,,,,",
",--bdeceihakaahigiglia,,,..----..,,,,,,-,,,,,,,,,,,,,,,,,,,,,,,,",
",,,acefiiiglfeggggggea,,,,.----..,,,,,,,,,,,,,,,,,,,,,,,,,-,,,,,",
",,,,acgfeegeggggggggeaaaaa.-,--,.,,,,,,,,,,,,--,,,,,,,,,,,-,,,,,",
",,,,,accchhellgggggggielgcaa---..,,,,,,,,,,,,,,,,,,,,,,,,-,-,,,,",
",,,,,ahhhiiieeeeeeeggeeeiilla--.,,,,,,,,,,,,,,,,,,,,,,,,,-,,,,,,",
",,,,,aaaaacgigeegggggeeeglegca-..,,,,,,,,,,,,,,,,,,,,,,,-,,,,,,,",
",,,,,,,,,aacgggiegeegeeegeeiiia..,,-,,,,,,,,,,,,,,,,,,,,,,,,,,,,",
",,,--,---aaaigigiieegeeegeegiecaa---,,,,,,,,,,,,,,,,,,,,,----,,,",
",---------aacciiggeegeeeeeegeeeeia------------,,,----,----------",
"-----------acigiegggggeegeeeeeeeecaa----------------------------",
"-----------aacgieegggggggeeeeeeeegccaaaaaaaaa-------------------",
"-----------aaiehghgiggggeeeeelleegggicidhhhcdaaa----------------",
"------------aigghggggggeeeeeeelleegggggggggggihcaa--------------",
"------------acgiehgigeieeeeeieeeeeeeggggggellleegcd-------------",
"--,.***......aecehgiiiieeeeeihhigeeeggggggeeeeeeegha,,-,---,---,",
"*********.****cgiehgieeeeeehhhgeeeeeeggggggeeeeeeeida-,,,,,,,,,,",
"****...*......aecehiieeleeechggeeeeeeeeggeeeeeeeeeghda,..,.,,,.,",
"*......,......acdihhgellleeciggeeeeeeeeeeeeeeeeeeegidaa.........",
".......,......,addhciellleecigggeeeeeeeeeeeeeeeeeeggcha.........",
"..............,,adddhgllleechggggeeegeeeegeeeeeeeeggchha........",
"...............,,addcilleeehciigggeegggeegeeeeeeeegihgaa........",
"................,addadeleeehccaaaiiheiigggeeeellegghhgca........",
"................,,accacgeeedda,aaaaaggcccggellllegidaiiha.......",
".........,.......,aaccdheiad,,,,,,..cddccciellleegiaaaega.......",
".........-........,ahcaeeia,,,,,....addhiicielleeida.agea.......",
"..................,ahhaeeha,,,.......addciiieeleida..aieca......",
"...................aoqstmsa............accgieeggid...aeeeaa..aaa",
"..................aqmqomoa.............ahhaiglggihaa..aegccaada.",
"..................ammamosa.............,achcacleeheha.aaegegida.",
"****...*....,....ammaammaa,.,,...,.,,,,,,dadcaadtruua.*aaeihaa,.",
"*........,,,,,,,,ammammma,,,.,,,,,,,,,aaaaassqqasruqa****aaaa***",
"****************aomasmmoa-,,,,,-,,,,,aoooqomqaaooqa*******.*****",
"***************ammarttroa-----------ammmmoaommmsaa*************.",
"**************.ammamtmta------------arqrsaauqursa*...*.........*",
",,..,,,.....,.-aaaaaaaaa,,-,----,,,-aaaaaaaaaaaa,...*.....****..",
",,,,,,,,,,,,,,*.-----------,----------,,,,.,,,,,-.......,,,,----"
};
