/* XPM */
static char *graphic[] = {
"64 64 25 1",
". c #203C56",
", c #0D2B45",
"- c #06131F",
"* c #000000",
"a c #544E68",
"b c #0C0705",
"c c #040102",
"d c #070505",
"e c #624135",
"f c #1E120E",
"g c #504027",
"h c #473730",
"i c #251B19",
"j c #42200F",
"k c #9CF3D9",
"l c #975B5A",
"m c #1F120E",
"n c #72634B",
"o c #D79993",
"p c #644926",
"q c #190F0F",
"r c #A98D7A",
"s c #34230C",
"t c #C0A57A",
"u c #E7BB94",
"............---,--,----.........------............---.-------...",
"...-.........------.......,.....................................",
"...,,........--,--.......,,..,...,,,,...,,,,,,,....,............",
".,,,,,,,,,,,.-----.,,,,,,,,,,,,,,,,,,,,,,,,,,,,,,,,,,,,,,,,,,,,,",
",,,,,,,,,,,,..----.,,,,-,,,,,,,,,,,,,,,,,,,,,,,,,,,,,,,,,,,,,,,,",
",,,,,--,,,,,,.----.,,,,--,,,,,,,,--,,,,,,,,,,,,,,,,,,,,,,,,,,,,,",
",,,,,,,-,,,,,.----.,,,,,,,,,,,,,,,,,,,,,,,,,,,,,,,,,,,,,,,,,,,,,",
",,,,,,,,,,,,,.----..,,,,,,,,,,,,,,,,,--,,,,,,,,,,,,,,,,,,,,,,,,,",
",,,,,,,,,-,,..----..,,,,,,,,,,,,,,,,,,,,,,,---,,,,,,,,,,,,,,,,,,",
",,,,,,,,,---,.----,.,,,,,,,,,,,,,,,,,,,,,,,,,-,,,,,,-,,,,,,,,,,,",
",,,,,,,,,,,,,.----,.,,,,,,,,,,,,,,,,,,,,,,,,,,,,,,,,-,,,,,,,,,,,",
",,,,,,-,,,,,..----..,,,,,,,,,,,,,,,,,,,,,,,,,-,,,,,,,,,,,,,,,,,,",
",,,,,,-,,,,,..----..,,-,,,,,,,,,,,,,,,,,,,,,-,,,,,-,,,,,,,,,,,,,",
",,,,,--,,,,,..----..,,,-,,,,,,,,,,,,,,,,,,,,,,,,,,,,,,,,,,,,,,,,",
",,,,,,,----..-----.-------,,,,,-------,,,,,,,,,,,,----,,,--,,,-,",
",-,---------.------------,----------------,,--------------------",
"----------------------------------------------------------------",
"----------------------------------------------------------------",
"----------------------------------------------------------------",
"-------------------------,--,-----------------------------------",
"----------------------------------------------------------------",
"-........................---,----,...........---....-----------.",
"........---..,.,..,.......------,.....,...,...-.......---.......",
"....,,,,,,,,,,,,,,,,,.,....-,--,.,..,,,,,,,,,,,,..,,,.....,,.,..",
".,,,,,,,,,,,,,,,,,,,,,,,,.,-,--,.,,,,,,,,,,,,,,,,,,,,,,,,,,,,,,,",
",,,,,,,,,,,,,,,,,,,,,,,,,,.----.,,,,,,,,,,,,,,,,,,,,,-,,,,,,,,,,",
",,,,,,,,,,,,**,,,,,,,,,,,,.----.,,,,,,,,,,,,,,,,,,,,,,--,,,,,,,,",
",,,,,,,,,,,,*d*,*,,,,,,,,..----.,,,,,,,-,,,,,,,,,,,,,,,,,,,,,,,,",
",--,,,,,,,,,*d**o*,,,,,,,..----..,,,,,,-,,,,,,,,,,,,,,,,,,,,,,,,",
",,,,,,,,,,,*b*d*lo*,,,,,,,.----..,,,,,,,,,,,,,,,,,,,,,,,,,-,,,,,",
",,,,,--,c*cbbdm*ho*,,,,,,..-,--,.,,,,,,,,,,,,--,,,,,,,,,,,-,,,,,",
",,,,,,,c*fbidiimll*,--,,,,.----..,,,,,,,,,,,,,,,,,,,,,,,,-,-,,,,",
",,,,,,**iefiihmhli**,,,,,,.----.,,,,,,,,,,,,,,,,,,,,,,,,,-,,,,,,",
",,,***ccjilehhihlimmm****..----..,,,,,,,,,,,,,,,,,,,,,,,-,,,,,,,",
",**bfbb*k*ifihhhheemielhb***---..,,-,,,,,,,,,,,,,,,,,,,,,,,,,,,,",
"*bcbeifhlgehhhhhheeheeeiillb*--.----,,,,,,,,,,,,,,,,,,,,,----,,,",
"*cdegiiihehhhhhhhhhheeehlehib****-------------,,,----,----------",
"-*behgeehellhhheehheeeeheeiieeibb**---******--------------------",
"--*bbbiffieeeeehhhheeeeheeheeeeeebb***dfffbd***-----------------",
"--*fffiiihiheehheeheeeeeeeheeeeeehhibihhhhhhifb**---------------",
"---*****bbhhhieieehhheeheeeeeeehhhhhhhhhhellleehbd--------------",
"--------**ihihiheehhhhhheeeeleeeehhhhhhhheeeeeeehf*-------------",
"--,.aaa...*biiihhhhhhhheeeeelleeeeehhhhhhheeeeeeeid*,,-,---,---,",
"aaaaaaaaa.*bihieehhhhheeeeeieeeeeeeehhhheeeeeeeeehfd*-,,,,,,,,,,",
"aaaa...a...*bhiefhiheieeeeeifihheeeeeeeeeeeeeeeeehid*,,..,.,,,.,",
"a......,....*bbefhiiieeeeeefheeeleeeeeeeeeeeeeeeehhbf*..........",
".......,....bbbiefhieeeeeeffheeleeeeeeeeheeeeeeeehhbf**.........",
".............*bdiffhellleebfhheeeeehhhhhheeeellehhffhi*.........",
"..............b*dddfhllleefbihhhheeeiibbhhellllehid*ieh*.......*",
"................*ddbilleeefd***biifhhbbbbiellleehi*.*heb**...**.",
"................*dd*deleeed,,,,****bddfiibielleeid*.*ieeib***d*.",
".........,.......*bb*bheeed,,,,,,,.*dddbiiieeleid*...*dhhehhid*.",
".........-........*bb*dfei*,,,,,....*d*bbhieehhida,...*eeifd**..",
"..................*fbd*eei*,,,.......*bf*bhhehhb**.....*****....",
"..................*ffd*eef*...........*dff*fllhii**.............",
"..................*pq*stns*............*bfb*bleeftp*......,.....",
".................*qnq*pnp*.............,d*df**deruu*............",
"aaaa...a....,....*pnq*ppp*,.,,...,.,,,,,,*fidd*bruq*..aa...a..,.",
"a........,,,,,,,*nn**nps**,,.,,,,,,,,,***qnnq**pps*..aaaaaaaaaaa",
"aaaaaaaaaaaaaaa*pn*snnp*.-,,,,,-,,,,*ppnn**qpnns**aaaaaaaa.aaaaa",
"aaaaaaaaaaaaaa*nn*rttrp*.----------*nnnnp*pnnns*..aaaaaaaaaaaaa.",
"aaaaaaaaaaaaaa*nn*ntnt*------------*rqrs**uqurs*.a...a.........a",
",,..,,,.....,.*********.,,-,----,,,************,,...a.....aaaa..",
",,,,,,,,,,,,,,a.-----------,----------,,,,.,,,,,-.......,,,,----"
};
