/* XPM */
static char *graphic[] = {
"64 64 25 1",
". c #203C56",
", c #0D2B45",
"- c #06131F",
"* c #544E68",
"a c #000000",
"b c #040102",
"c c #0C0705",
"d c #070505",
"e c #624135",
"f c #504027",
"g c #473730",
"h c #1E120E",
"i c #251B19",
"j c #42200F",
"k c #9CF3D9",
"l c #975B5A",
"m c #1F120E",
"n c #72634B",
"o c #644926",
"p c #D79993",
"q c #190F0F",
"r c #A98D7A",
"s c #34230C",
"t c #C0A57A",
"u c #E7BB94",
"............---,--,----.........------............---.-------...",
"...-.........------.......,.....................................",
"...,,........--,--.......,,..,...,,,,...,,,,,,,....,............",
".,,,,,,,,,,,.-----.,,,,,,,,,,,,,,,,,,,,,,,,,,,,,,,,,,,,,,,,,,,,,",
",,,,,,,,,,,,..----.,,,,-,,,,,,,,,,,,,,,,,,,,,,,,,,,,,,,,,,,,,,,,",
",,,,,--,,,,,,.----.,,,,--,,,,,,,,--,,,,,,,,,,,,,,,,,,,,,,,,,,,,,",
",,,,,,,-,,,,,.----.,,,,,,,,,,,,,,,,,,,,,,,,,,,,,,,,,,,,,,,,,,,,,",
",,,,,,,,,,,,,.----..,,,,,,,,,,,,,,,,,--,,,,,,,,,,,,,,,,,,,,,,,,,",
",,,,,,,,,-,,..----..,,,,,,,,,,,,,,,,,,,,,,,---,,,,,,,,,,,,,,,,,,",
",,,,,,,,,---,.----,.,,,,,,,,,,,,,,,,,,,,,,,,,-,,,,,,-,,,,,,,,,,,",
",,,,,,,,,,,,,.----,.,,,,,,,,,,,,,,,,,,,,,,,,,,,,,,,,-,,,,,,,,,,,",
",,,,,,-,,,,,..----..,,,,,,,,,,,,,,,,,,,,,,,,,-,,,,,,,,,,,,,,,,,,",
",,,,,,-,,,,,..----..,,-,,,,,,,,,,,,,,,,,,,,,-,,,,,-,,,,,,,,,,,,,",
",,,,,--,,,,,..----..,,,-,,,,,,,,,,,,,,,,,,,,,,,,,,,,,,,,,,,,,,,,",
",,,,,,,----..-----.-------,,,,,-------,,,,,,,,,,,,----,,,--,,,-,",
",-,---------.------------,----------------,,--------------------",
"----------------------------------------------------------------",
"----------------------------------------------------------------",
"----------------------------------------------------------------",
"-------------------------,--,-----------------------------------",
"----------------------------------------------------------------",
"-........................---,----,...........---....-----------.",
"........---..,.,..,.......------,.....,...,...-.......---.......",
"....,,,,,,,,,,daa,,,,.,....-,--,.,..,,,,,,,,,,,,..,,,.....,,.,..",
".,,,,,,,,,,,,adaa,,,,,,,,.,-,--,.,,,,,,,,,,,,,,,,,,,,,,,,,,,,,,,",
",,,,,,,,,,,,aacaaaaaaa,,,,.----.,,,,,,,,,,,,,,,,,,,,,-,,,,,,,,,,",
",,,,,,,,,babccdadgggga,,,,.----.,,,,,,,,,,,,,,,,,,,,,,--,,,,,,,,",
",,,,,,,,aahcidimgglpa,,,,..----.,,,,,,,-,,,,,,,,,,,,,,,,,,,,,,,,",
",-aaaaabbiehiigimlpga,,,,..----..,,,,,,-,,,,,,,,,,,,,,,,,,,,,,,,",
",acbchccajileggmgpiaa,,,,,.----..,,,,,,,,,,,,,,,,,,,,,,,,,-,,,,,",
",bdeceihakaahigiglia,,,,,..-,--,.,,,,,,,,,,,,--,,,,,,,,,,,-,,,,,",
",acefiiiglfeggggggea--,,,,.----..,,,,,,,,,,,,,,,,,,,,,,,,-,-,,,,",
",,acgfeegeggggggggeeaaaaa,.----.,,,,,,,,,,,,,,,,,,,,,,,,,-,,,,,,",
",,,accihhellggggggggielgcaa----..,,,,,,,,,,,,,,,,,,,,,,,-,,,,,,,",
",,,,aaaiiieeeeeeeggheeeiilla---..,,-,,,,,,,,,,,,,,,,,,,,,,,,,,,,",
",,,ahhiacgigeegggggheeeglegcaa-.----,,,,,,,,,,,,,,,,,,,,,----,,,",
",--aaaaaacgggiegeegheeegeeiiicaa--------------,,,----,----------",
"--------aaigigiieeggeeegeegieeeia-------------------------------",
"---------acciiggeeggeeeeeegeeeeecaa---aaaaaa--------------------",
"---------acigieggggggeegeeeeeeeegccaaadhhhcdaaa-----------------",
"----------acgieeggggggggeeeeeleegggiciggggggihcaa---------------",
"----------aaiehhgigggggeeeeellleeggggggggellleegcd--------------",
"--,.***....aigghggggggeeeeeeeeeeeeeggggggeeeeeeegha.,,-,---,---,",
"*********.*acgiehgigeieeeeeiehigeeegggggggeeeeeeeida,-,,,,,,,,,,",
"****...*...aaecehgiiiieeeeeihgeeeeeeggggeeeeeeeeeghda,,..,.,,,.,",
"*......,....acgiehgieeeeeehhhgeeeeeeeeeeeeeeeeeeegidaa..........",
".......,.....aecehiieeleeechggeeeeeeeeeeeeeeeeeeeggcha..........",
".............acdihhgellleecigggeeeeeeeeegeeeeeeeeggchha.........",
"..............addhciellleechggggeeegeeeegeeeeeeeegihgaa.........",
"...............adddhgllleehciigggeeggggggeeeellegghhgca.........",
"................addcilleeehccaaaiiheiiccggellllegidaiiha........",
".........,......addadeleeedda,aaaaaggcccciellleegiaaaega........",
".........-.......accacgeeed,,,,,...cddhiicielleeida.ageca.......",
"..................accadheia,,,.....adddciiieeleida..aieeaa...aaa",
"..................ahhdaeeha.........adaccgieeggid*...adgccaaada.",
"..................ahdaceica...........ahhaiglggihaa...aegeggida.",
".................aqnqaonoa.............achcacleehtoa...aeihdaa..",
"****...*....,....aonqaoooa,.,,...,.,,,,,dadcaadeguua..**aaaa..,.",
"*........,,,,,,,annaanosaa,,.,,,,,,,,,,,aassqqasruqa.***********",
"****************annannnaa-,,,,,-,,,,,aaaaqsnqaaoosa*******.*****",
"***************aonasnnoa.-----------aoooqonqaaooqa*************.",
"**************annarttroa-----------annnnoaonnnsaa*...*.........*",
",,..,,,.....,.annantnta.,,-,----,,,arqrsaauqursa,...*.....****..",
",,,,,,,,,,,,,,aaaaaaaaa----,-------aaaaaaaaaaaa,-.......,,,,----"
};
