/* XPM */
static char *b27be0d0c2054402f2f71ab09e4817e25G1hq9dxwfRtAsyz[] = {
/* columns rows colors chars-per-pixel */
"64 64 24 1 ",
"  c #06131F",
". c #171A0F",
"X c #3A1F1D",
"o c #0D2B45",
"O c #243117",
"+ c #302D21",
"@ c #203C56",
"# c #364922",
"$ c #4E5332",
"% c #544E68",
"& c #6B3840",
"* c #80592D",
"= c #8D4953",
"- c #B34D5C",
"; c #62784A",
": c #BD7247",
"> c #AB7B44",
", c #9F8965",
"< c #BC8D57",
"1 c #84AE56",
"2 c #CD9757",
"3 c #E2B179",
"4 c #E6DAAD",
"5 c #FDFFD6",
/* pixels */
"@@@@@@@@@@@@   o  o    @@@@@@@@@      @@@@@@@@@@@@   @       @@@",
"@@@ @@@@@@@@@      @@@@@@@o@@@@@@@@@@@@@@@@@@@@@@@@@@@@@@@@@@@@@",
"@@@oo@@@@@@@@  o  @@@@@@@oo@@o@@@oooo@@@ooooooo@@@@o@@@@@@@@@@@@",
"@ooooooooooo@     @oooooooo;ooo;oooooooooooooooooooooooooooooooo",
"oooooooooooo@@    @oooo ooo;;oo;;ooooooooooooooooooooooooooooooo",
"ooooo  oooooo@    @oooo  oo.;;.$;; ooooooooooooooooooooooooooooo",
"ooooooo ooooo@    @ooooooo.$$;;O$;;ooooooooooooooooooooooooooooo",
"ooooooooooooo@    @@oooooo.$$$;;O$;;o  ooooooooooooooooooooooooo",
"ooooooooo oo@@    @@oooooo.$$$$;;;O;;oooooo   oooooooooooooooooo",
"ooooooooo   o@    o@ooooo.O$$$$$;;;;O;ooooooo oooooo ooooooooooo",
"ooooooooooooo@    o@ooooo.O$$$$$$$;;;;;;;ooooooooooo ooooooooooo",
"oooooo ooooo@@    @@ooooo.OO$$$$$$OO;;;;;;;oo oooooooooooooooooo",
"oooooo ooooo@@    @@oo oo.OOO$$$$O$$$$$$$$;;;ooooo ooooooooooooo",
"ooooo  ooooo@@    @@ooo o.OOOOOO$$$$$$$$$$$$;;oooooooooooooooooo",
"ooooooo    @@     @      .OOOOO$$$$$$$$$$$$$$;;ooo    ooo  ooo o",
"o o         @            .OOOO$$$$$$$$$$$$$$;;;                 ",
"                         .OO$$$$$$$$$$$$$$;;,,                  ",
"                          .$$$$$$$$$$$$$;;,,44,                 ",
"                         .$$$$$$$$$$$$$;,44445,                 ",
"                         .$$$$$$$$$$$$$;444,++4                 ",
"                        .O$$$$$$$$$$$$;:2444444                 ",
" @@@@@@@@@@@@@@@@@@@@@@@.O$$$$$$$$$$$$;>2245,44 @@@@           @",
"@@@@@@@@   @@o@o@@o@@@@.O$$$$$$$$$$$$O;2>++1#44@@@@@@@   @@@@@@@",
"@@@@ooooooooooooooooo@.$$$$$$$$$$$$$O;:22311#44o@@ooo@@@@@oo@o@@",
"@oooooooooooooooooooo.OO$$$$$$$$$$$O;*>><<<1#444oooooooooooooooo",
"oooooooooooooooooooo.OOOO$$$$$$$$$O;::222233445++oooo oooooooooo",
"ooooooooooooooooooooo.OOOO$$$$$$$$$O.**>>4444444,ooooo  oooooooo",
"oooooooooooooooooooooo.OOOOO$$$$$$$$O.::44444444,ooooooooooooooo",
"o  oooooooooooooooooooo..OOOO$$$$$$$$O.,,444444,oooooooooooooooo",
"ooooooooooooooooooooooooo..OOOOO$$$$$$O.,,4444,ooooooooooo ooooo",
"ooooo  oooooooooooooooooo@@..OOOOOOOOOOO..,,,  ooooooooooo ooooo",
"ooooooooooooo  ooooo  oooo@  ..............oooooooooooooo o oooo",
"oooooooooooo ooooooooooooo@    @.OOOOOO.X&&oooooooooooooo oooooo",
"ooooooooooooooooooooooooo@@    .OOOOOOO.X&=-oooooooooooo ooooooo",
"ooooooooooooooooooooo  oo@@    .OOOOOOO.+X&=-ooooooooooooooooooo",
"ooo  o   oooooooooo       @   .OOOOO$OO.++X&=oooooooooooo    ooo",
"o         o      o            .OOO$O$$O.+++XX ooo    o          ",
"                             .OO$$$O$$O.+,4,                    ",
"                             .$O$$O$$$O.,,4,                    ",
"                            .$$$$$O$$$.+,45,                    ",
"                            .$$$$$$$$$.+4455o                   ",
"                           .$$$$$$O$$$.+,4455o                  ",
"  o@%%%@@@@@@@555  o@@  @@@.$$$$$$$$$$.++,445    o@@oo o   o   o",
"%%%%%%%%%@%%%54445@@@@@@@@.$$$$$$$$$$$.++,,455  o@ooo oooooooooo",
"%%%%@@@%@@@@@44444o@@@oo@.$$$$$$$$$$$$.+4+,44,   o@oooo@@o@ooo@o",
"%@@@@@@o@@@@@@44445ooooo.$$$$$$$$$$$$$.,44+,4,  oo@@@@@@@@@@@@@@",
"@@@@@@@o@@@@@@oo,44oooo.$$$$$$$$$$$$$$.,44,+4+  oo@@@@@@@@@@@@@@",
"@@@@@@@@@@@@@@oo,,4ooo.$$$$$$$$$$$$$$$.:24,++o  @o@@@@@@@@@@@@@@",
"@@@@@@@@@@@@@@@o,,,oo.$$$$O$$$$$$$$$$$.*>>,%  o @o@@@@@@@@@@@@@@",
"@@@@@@@@@@@@@@@@++,o.$$$$$$$$$$O$$O$$$.:24,%    oo@@@@@@@@@@@@@@",
"@@@@@@@@@@@@@@@@o+++.$$$$O$$$$$$$$$$$$$.44,%    o@@@@@@@@@@@@@@@",
"@@@@@@@@@o@@@@@@@+++.O$$O$$$$$O$$$O$$$$.44,@ o  o@@@@@@@@@@@@@@@",
"@@@@@@@@@ @@@@@@@@+++.OO$$$$$$O$$$O$$$$.44,% o  o%o@@@@@@@@@@@@@",
"@@@@@@@@@@@@@@@@@@o@@o.OO$$$$O$$$O$$$$$.45,% o  @%@@@@@@@@@@@@@@",
"@@@@@@@@@@@@@@@@@@@@@@@..OOOOOO$$O$$$$$O445% o  o%@@@@@@@@@@@@@@",
"@@@@@@@@@@@@@@@@@@@@@@@@@.....OOOOO$$$OO,445 o oo%@@@@@@@@o@@@@@",
"@@@@@@@@@@@@@@@@@@@@@@@@@@@@@+....OOOOOO,,4455ooo%@@@@@@@@@@@@@@",
"%%%%@@@%@@@@o@@@@@@@o@@@ooo@oo++++......o+,444ooo@%%@@%%@@@%@@o@",
"%@@@@@@@@oooooooooo@@ooooooo@oo,,,+ooooooo,,, oo@@@@@%%%%%%%%%%%",
"%%%%%%%%%%%%%%%%@@@@@@@@@ ooooo oooooooooo   oooo@%%%%%%%%@%%%%%",
"%%%%%%%%%%%%%%%@@@@@@@@@@                   ooo@@@%%%%%%%%%%%%%@",
"%%%%%%%%%%%%%%@@@@ @@@               o       oo@@%@@@%@@@@@@@@@%",
"oo@@ooo@@@@@o@   o     @oo o    ooo o         ooo@@@%@@@@@%%%%@@",
"oooooooooooooo%@           o          oooo@ooooo @@@@@@@oooo    "
};
