/* XPM */
static char *f3b254f82f8b447791f208b8c8065927FcmpvjNnMcXTEWSL[] = {
/* columns rows colors chars-per-pixel */
"64 64 13 1 ",
"  c #06131F",
". c #171A0F",
"X c #0D2B45",
"o c #302D21",
"O c #243117",
"+ c #203C56",
"@ c #4E5332",
"# c #544E68",
"$ c #8D4953",
"% c #62784A",
"& c #9F8965",
"* c #E6DAAD",
"= c #FDFFD6",
/* pixels */
"++++++++++++   X  X    +++++++++      ++++++++++++   +       +++",
"+++ +++++++++      +++++++X+++++++++++++++++++++++++++++++++++++",
"+++XX++++++++  X  +%+++++XX++X+++XXXX+++XXXXXX%++++X++++++++++++",
"+XXXXXXXXXXX+     .%%XXXXXXXXXXXXXXXXXXXXXXXX%%.XXXXXXXXXXXXXXXX",
"XXXXXXXXXXXX++    .@%%X XXXXXXXXXXXXXXXXXXXX%%@.XXXXXXXXXXXXXXXX",
"XXXXX  XXXXXX+   .@@@%%  XXXXXXXX  XXXXXXXX%%@@@.XXXXXXXXXXXXXXX",
"XXXXXXX XXXXX+   .@@@%%%XXXXXXXXXXXXXXXXXX%%%@@@.XXXXXXXXXXXXXXX",
"XXXXXXXXXXXXX+   .@@@@%%%XXXXXXXXXXXX  XX%%%@@@@.XXXXXXXXXXXXXXX",
"XXXXXXXXX XX++  .O@@@@@%%%XXXXXXXXXXXXXX%%%@@@@@O.XXXXXXXXXXXXXX",
"XXXXXXXXX   X+  .O@@@@@@%%%%%%%%%%%%%%%%%%@@@@@@O.XX XXXXXXXXXXX",
"XXXXXXXXXXXXX+  .O@@@@@@@@%%%%%%%%%%%%%%@@@@@@@@O.XX XXXXXXXXXXX",
"XXXXXX XXXXX++  .O@@@@@@@@@@@@@@@@@@@@@@@@@@@@@@O.XXXXXXXXXXXXXX",
"XXXXXX XXXXX++  .O@@@@@@@@@@@@@@@@@@@@@@@@@@@@@@O. XXXXXXXXXXXXX",
"XXXXX  XXXXX++  .OO@@@OO@@@@@@@@@@@@@@@@@@@OO@@@O.XXXXXXXXXXXXXX",
"XXXXXXX    ++   .OOOOOO@@@@@@@@@@@@@@@@@@@@@OOOOO.    XXX  XXX X",
"X X         +   .OOOO@@@@@@@@@@@@@@@@@@@@@@@@OOOO.              ",
"                 .OO@@@@@@@@@@@@@@@@@@@@@@@@@@OO.               ",
"                 ..@@@@@@@@@@@@@@@@@@@@@@@@@@@@OO               ",
"                 .@@@@@@@@@@@@@@@@@@@@@@@@@@@@@@.               ",
"                .@@@@@@@@@@@@@@@@@@@@@@@@@@@@@@@@.              ",
"                .@@@@@@@@@@@@@@@@@@@@@@@@@@@@@@@@.              ",
" ++++++++++++++.O@@@@@@@@@@@@@@@@@@@@@@@@@@@@@@@@@.+           +",
"++++++++   ++X.OOO@@@@@@@@@@@@@@@@@@@@@@@@@@@@@@OOO.++   +++++++",
"++++XXXXXXXXX.OOOOO@@@@@@@@@@@@@@@@@@@@@@@@@@@OOOOOO.+++++XX+X++",
"+XXXXXXXXXXX.OOOOOOOO@@@@@@@@@@@@@@@@@@@@@@OOOOOOOOOO.XXXXXXXXXX",
"XXXXXXXXXXXXX..OOOOOOOOOO@@@@@@@@@@@@@@OOOOOOOOOOOO.. XXXXXXXXXX",
"XXXXXXXXXXXXXXX..OOOOOOOOOOOOOOOOOOOOOOOOOOOOOOOO..XXX  XXXXXXXX",
"XXXXXXXXXXXXXXXXX..OOOOOOOOOOOOOOOOOOOOOOOOOOOO..XXXXXXXXXXXXXXX",
"X  XXXXXXXXXXXXXXXX.....OOOOOOOOOOOOOOOOOO.....XXXXXXXXXXXXXXXXX",
"XXXXXXXXXXXXXXXXXXXXXXXX...OOOOOOOOOOOO...XXXXXXXXXXXXXXXX XXXXX",
"XXXXX  XXXXXXXXXXXXXXXXXX++............XXXXXX  XXXXXXXXXXX XXXXX",
"XXXXXXXXXXXXX  XXXXX  XXXX.O$$$$$$$$$$O.XXXXXXXXXXXXXXXXX X XXXX",
"XXXXXXXXXXXX XXXXXXXXXXXX.OOOO$$$$$$OOOO.XXXXXXXXXXXXXXXX XXXXXX",
"XXXXXXXXXXXXXXXXXXXXXXXX.OOOOOOOOOOOOOOOO.XXXXXXXXXXXXXX XXXXXXX",
"XXXXXXXXXXXXXXXXXXXXX  .OOOOOOOOOOOOOOOOOO.XXXXXXXXXXXXXXXXXXXXX",
"XXX  X   XXXXXXXXXX    .OOOOOOOOOOOOOOOOOO.XXXXXXXXXXXXXX    XXX",
"X         X      X    .@@@@OOOOOOOOOOOOO@@@.  XXX    X          ",
"                      .@@@@@@@OOOOOO@@@@@@@.                    ",
"                     .@@@@@@@@@@@@@@@@@@@@@@.                   ",
"                     .@@@@@@@@@@@@@@@@@@@@@@.                   ",
"                    .@@@@@@@@@@@@@@@@==@@@@@@.                  ",
"                    .@@@@@@@@@@@@@@@=**=@@@@@.                  ",
"  X+###+++++++ +X  X.@@@@@@@@@@@@@@@****@@@@@.   X++XX X   X   X",
"#########+####X++++.O@@@@@@@@@@@@@@@&***@@@@@O. X+XXX XXXXXXXXXX",
"####+++#+++++++++XX.O@@@@@@@@@@@@@@@@&**@@@@@O.  X+XXXX++X+XXX+X",
"#++++++X++++++XXXX.OO@@@@@@@@@@@@@@@@***@@@@@OO.XX++++++++++++++",
"+++++++X++++++XXX.OO@@@@@@@@@@@@@@@@@***@@@@@@OO.X++++++++++++++",
"++++++++++++++XX.O@@@@@@@@@@@@@@@@@@@***@@@@@@@OO.++++++++++++++",
"+++++++++++++++.@@@@@@@@@@@@@@@@@@@@@***@@O@@@@@@O.+++++++++++++",
"+++++++++++++..@@@@@@@@@@@@O@@@@@@@@@&**@@@@@@@@@@@..+++++++++++",
"+++++++++++..@@@@@@@@@@@@@@@@@@@@@@@&&&&@@@@@@@@@@@@@..+++++++++",
"+++++++++X.@@@@@@@@@@@O@@@O@@@@@@OOO&&&&@@@@O@@@@@@@@@@.++++++++",
"+++++++++.@@@@O@@@@@@O@@@@@@@@@@O..&&&&@@@@@@@@@O@@@@@@@.+++++++",
"++++++++++..OO@@@@@@@@@@@OO@@@@O.o&&&&OO@@@@@O@@@O@@@@..++++++++",
"++++++++++++..OO@@@O@@@@OO@@OOO.oo&&&oO.OO@@@@O@@@OO..++++++++++",
"++++++++++++++..OOOOOOOOOOOO...o&&&&&&o..OOOOOOOOO..++++++X+++++",
"++++++++++++++++...OOOOOO...ooo&&&&&&ooo.@OOOOO...++++++++++++++",
"####+++#++++X++++++......oooooooooooooooo......XX+##++##+++#++X+",
"#++++++++XXXXXXXXXX++XXXXXoooooooXXo&&&oXXX#  XX+++++###########",
"################+++++++++ Xo&&&oXXXXoooXXX   XXXX+########+#####",
"###############++++++++++  o***o            XXX+++#############+",
"##############++++ +++      ooo      X       XX++#+++#+++++++++#",
"XX++XXX+++++X+   X     +XX X    XXX X         XXX+++#+++++####++",
"XXXXXXXXXXXXXX#+           X          XXXX+XXXXX +++++++XXXX    "
};
