/* XPM */
static char *e6a7a85fadf745f2d56ce1c33fc8e2d3KJkNI5QaLHAdRP93[] = {
/* columns rows colors chars-per-pixel */
"64 64 24 1 ",
"  c #06131F",
". c #171A0F",
"X c #3A1F1D",
"o c #0D2B45",
"O c #243117",
"+ c #302D21",
"@ c #3D3734",
"# c #203C56",
"$ c #364922",
"% c #4E5332",
"& c #544E68",
"* c #6B3840",
"= c #80592D",
"- c #8D4953",
"; c #B34D5C",
": c #62784A",
"> c #796E67",
", c #BD7247",
"< c #AB7B44",
"1 c #9F8965",
"2 c #84AE56",
"3 c #CD9757",
"4 c #E6DAAD",
"5 c #FDFFD6",
/* pixels */
"############   o  o    #########      ############   #       ###",
"### #########      #######o#####################################",
"###oo########  o  #######oo##o###ooo:###:oooooo####o############",
"#ooooooooooo#     #oooooooooooooooo::oo::ooooooooooooooooooooooo",
"oooooooooooo##    #oooo oooooooooo::%.::.ooooooooooooooooooooooo",
"ooooo  oooooo#    #oooo  oooooooo::%O::%%.oooooooooooooooooooooo",
"ooooooo ooooo#    #ooooooooooooo::%O::%%%.oooooooooooooooooooooo",
"ooooooooooooo#    ##ooooooooooo::O:::%%%%.oooooooooooooooooooooo",
"ooooooooo oo##    ##oooooooooo:O::::%%%%%O.   oooooooooooooooooo",
"ooooooooo   o#    o#ooooooo:::::::%%%%%%%O.oo oooooo ooooooooooo",
"ooooooooooooo#    o#ooooo:::::::OO%%%%%%OO.ooooooooo ooooooooooo",
"oooooo ooooo##    ##ooo:::%%%%%%%%O%%%%OOO.oo oooooooooooooooooo",
"oooooo ooooo##    ##oo::%%%%%%%%%%%%OOOOOO.o ooooo ooooooooooooo",
"ooooo  ooooo##    ##o::%%%%%%%%%%%%%%OOOOO.ooooooooooooooooooooo",
"ooooooo    ##     #  :::%%%%%%%%%%%%%%OOOO.ooooooo    ooo  ooo o",
"o o         #         11::%%%%%%%%%%%%%%OO.o                    ",
"                     14411::%%%%%%%%%%%%%.                      ",
"                     1544>>@:%%%%%%%%%%%%%.                     ",
"                     4++14>>:%%%%%%%%%%%%%.                     ",
"                     44444>>@:%%%%%%%%%%%%O.                    ",
"                     4415>>>>:%%%%%%%%%%%%O.                    ",
" ####################44$2++44:O%%%%%%%%%%%%O.   ####           #",
"########   ##o#o##o##44$225441:O%%%%%%%%%%%%%. #######   #######",
"####oooooooooooooooo444$2555441:O%%%%%%%%%%%OO.o##ooo#####oo#o##",
"#oooooooooooooooooo++54455444411:O%%%%%%%%%OOOO.oooooooooooooooo",
"ooooooooooooooooooo144444444411.O%%%%%%%%%OOOO.oooooo oooooooooo",
"ooooooooooooooooooo14444444411.O%%%%%%%%OOOOO.oooooooo  oooooooo",
"oooooooooooooooooooo144444411.O%%%%%%%%OOOO..ooooooooooooooooooo",
"o  oooooooooooooooooo1444411.O%%%%%%OOOOO..ooooooooooooooooooooo",
"ooooooooooooooooooooooo111..OOOOOOOOOOO..ooooooooooooooooo ooooo",
"ooooo  oooooooooooooooooo..............oooooo  ooooooooooo ooooo",
"ooooooooooooo  ooooo  ooo**X.OOOOOO.ooooooooooooooooooooo o oooo",
"oooooooooooo ooooooooooo;-*X.OOOOOOO.oooooooooooooooooooo oooooo",
"ooooooooooooooooooooooo;-*X+.OOOOOOO.ooooooooooooooooooo ooooooo",
"ooooooooooooooooooooo  -*X++.OO%OOOOO.oooooooooooooooooooooooooo",
"ooo  o   oooooooooo    XX+++.O%%O%OOO.ooooooooooooooooooo    ooo",
"o         o      o      14,+.O%%O%%%OO.       ooo    o          ",
"                        13,=.O%%%O%%O%.                         ",
"                        15<,+.%%%O%%%%%.                        ",
"                        5533+.%%%%%%%%%.                        ",
"                       5544,+.%%%O%%%%%%.   o                   ",
"                       5441++.%%%%%%%%%%.    o     555          ",
"  o#&&&####### #o  o##55411++.%%%%%%%%%%%.       o54445o   o   o",
"&&&&&&&&&#&&&&o#######1441+4+.%%%%%%%%%%%%.     o#44444ooooooooo",
"&&&&###&#########oo###141+441.%%%%%%%%%%%%%.     54444o##o#ooo#o",
"&######o######oooooooo+4+1441.%%%%%%%%%%%%%%.o  o441############",
"#######o######ooooooooo++1441.%%%%%%%%%%%%%%%.  o411############",
"##############ooooooooooo1441.%%%%%%%%%%%O%%%%. #111############",
"###############oooooooooo1441.%%%O%%O%%%%%%%%%%.#1++############",
"################ooooooooo144.%%%%%%%%%%%%%O%%%%.+++#############",
"################ooooooooo1>4.%%%%O%%%O%%%%%O%%O.+++#############",
"#########o#######oooooooo1>4.%%%%O%%%O%%%%%%OO.+++##############",
"######### ########o#ooooo@>4.%%%%%O%%%O%%%%OO.  o&o#############",
"##################o##oooo+@>O%%%%%O%%OOOOOO..o  #&##############",
"########################+++@OO%%%OOOOO.....& o  o&##############",
"######################441+++OOOOOO....+###&& o oo&########o#####",
"######################4411+#......++++#o##&& oooo&##############",
"&&&&###&####o#######o##111o#oo###+111ooooo&& oooo#&&##&&###&##o#",
"&########oooooooooo##ooooooo#oooooooooooooo&  oo#####&&&&&&&&&&&",
"&&&&&&&&&&&&&&&&######### ooooo oooooooooo   oooo#&&&&&&&&#&&&&&",
"&&&&&&&&&&&&&&&##########                   ooo###&&&&&&&&&&&&&#",
"&&&&&&&&&&&&&&#### ###               o       oo##&###&#########&",
"oo##ooo#####o#   o     #oo o    ooo o         ooo###&#####&&&&##",
"oooooooooooooo&#           o          oooo#ooooo #######oooo    "
};
