/* XPM */
static char *_bdec548abfe4d97ac3537caeb9ba501Fz85vxMsZWJ3vDvc[] = {
/* columns rows colors chars-per-pixel */
"64 64 25 1 ",
"  c #06131F",
". c #171A0F",
"X c #3A1F1D",
"o c #0D2B45",
"O c #243117",
"+ c #302D21",
"@ c #3D3734",
"# c #203C56",
"$ c #364922",
"% c #4E5332",
"& c #544E68",
"* c #6B3840",
"= c #8D4953",
"- c #B34D5C",
"; c #796E67",
": c #62784A",
"> c #9C8C81",
", c #A47556",
"< c #BD7247",
"1 c #9F8965",
"2 c #CD9757",
"3 c #84AE56",
"4 c #E2B179",
"5 c #E6DAAD",
"6 c #FDFFD6",
/* pixels */
"############   o  o    #########      ############   #       ###",
"### #########      #######o#####################################",
"###oo########  o  #######oo##o###oooo###ooooooo####o############",
"#ooooooooooo#     #ooooooooooooooooooooooooooooooooooooooooooooo",
"oooooooooooo##    #:ooo oooooooooooooooooooooo:ooooooooooooooooo",
"ooooo  oooooo#    .::oo  oooooooo  oooooooooo::.oooooooooooooooo",
"ooooooo ooooo#    .%::oooooooooooooooooooooo::%.oooooooooooooooo",
"ooooooooooooo#   .%%%::oooooooooooooo  oooo::%%%.ooooooooooooooo",
"ooooooooo oo##   .%%%:::oooooooooooooooooo:::%%%.ooooooooooooooo",
"ooooooooo   o#   .%%%%:::oooooooooooooooo:::%%%%.ooo ooooooooooo",
"ooooooooooooo#  .O%%%%%:::oooooooooooooo:::%%%%%O.oo ooooooooooo",
"oooooo ooooo##  .O%%%%%::::::::::::::::::::%%%%%O.oooooooooooooo",
"oooooo ooooo##  .O%%%%%%::::::::::::::::::%%%%%%O. ooooooooooooo",
"ooooo  ooooo##  .O%%%%%%::%%%%%%%%%%%%%%::%%%%%%O.oooooooooooooo",
"ooooooo    ##   .O%%%O%:%%%%%%%%%%%%%%%%%%:%%%%%O.    ooo  ooo o",
"o o         #   .OO%O:%%%%%%%%%%%%%%%%%%%%%%O%%%O.              ",
"                .OOO:%%%%%%%%%%%%%%%%%%%%%%%:O%OO.              ",
"                .OOO:%%%%%%%%%%%%%%%%%%%%%%%%:OOO.              ",
"                 .O:%%%%%%%%::::::::::%%%%%%%:OO.               ",
"                 ..%%%%%%%::@@@@111@@@::%%%%%%:..               ",
"                 .%%%%%%::111@@11111@@@@::%%%%%%.               ",
" ###############.%%%%%%:<<11111111111@@@@@:%%%%%%.##           #",
"########   ##o#o.%%%%%:<<1115++5555++1@@@@@:%%%%%.####   #######",
"####ooooooooooo.%%%%%%:<<<225555555555;;@@@:%%%%%%.oo#####oo#o##",
"#ooooooooooooo.%%%%%%%:<<22225555555555;;@1:%%%%%%%.oooooooooooo",
"ooooooooooooo.%%%%%%%<<22++3$65555556$3++551.%%%%%%%. oooooooooo",
"oooooooooooo.OO%%%%%.<222233$36555563$3366551.%%%%%OO.  oooooooo",
"ooooooooooooo..OO%%%.<222243$33555533$3655551.%%%OO..ooooooooooo",
"o  oooooooooooo..OOOO.<222245555665555555551.OOOO..ooooooooooooo",
"ooooooooooooooooo..OOO.<22555555++555555551.OOO..ooooooooo ooooo",
"ooooo  oooooooooooo.....155555555555555551.....ooooooooooo ooooo",
"ooooooooooooo  ooooo  oo...555555555555...ooooooooooooooo o oooo",
"oooooooooooo oooooooooooo............OO..oooooo66oooooooo oooooo",
"oooooooooooooooooooooooo.OOX--=XXXX=--XOO.oooo6555oooooo ooooooo",
"ooooooooooooooooooooo  .OOOX-=*X11X*=-XOOO.ooo5555oooooooooooooo",
"ooo  o   oooooooooo    .OOOX**X1111X**XOOO.oooo551ooooooo    ooo",
"o         o      o    .%%%OOXX11551<XXOO%%%.  o51+   o          ",
"                      .%%%%O.115555<<.O%%%%.   11+              ",
"                     .%%%%%.11555552<<.%%%%%. 11+               ",
"                     .%%%%.1155555222<<.%%%%.+11+               ",
"                    .%%%%%.15555552222<.%%%%%.1+                ",
"                    .%%%%%.555555522222.%%%%%.+                 ",
"  o#&&&####### #o  o.%%%%.55155555552,22.%%%%.+  o##oo o   o   o",
"&&&&&&&&&#&&&&o####.O%%%%.55155611655155.%%%%O. o#ooo oooooooooo",
"&&&&###&#########oo.O%%%%.551+561165+155.%%%%O.  o#oooo##o#ooo#o",
"&######o######oooo.OO%%%%.555+66++66+555.%%%%OO.oo##############",
"#######o######ooooOO%%%%%.2551+6++6+1555.%%%%%OOoo##############",
"##############ooo.%%%%%%.<22551++++155551.%%%%%O.o##############",
"###############o.%%%%O%%.<255551111555551.%%O%%%.o##############",
"################.%%%%%%%.,555555555555551.%%%%%%%.##############",
"###############.%O%%%%%%.1555555555555551.%%%%%%O%.#############",
"#########o####.%%%%%O%%%.1555555555555551.%%%O%%%%%.############",
"######### ###.%O%%%%%%%%.1555555555;;5551O%%%%%%%%O%.###########",
"############.%O%%%%O%%%%O.5555555;;;;555.O%%%%O%%%%O%.##########",
"#############.OO%%OO%%%%O.5555566>>;;555.O%%%%OO%%OO.###########",
"##############..OOOOOOOOO.1555511@@;;;51.OOOOOOOOO..######o#####",
"################...OOOOOO.+1551++++@@@11.OOOOOO...##############",
"&&&&###&####o######......oo+++###o++;;1+o......oo#&&##&&###&##o#",
"&########oooooooooo##ooooooo#ooooo+>>66+ooo&  oo#####&&&&&&&&&&&",
"&&&&&&&&&&&&&&&&######### ooooo ooo+55+ooo   oooo#&&&&&&&&#&&&&&",
"&&&&&&&&&&&&&&&##########           ++      ooo###&&&&&&&&&&&&&#",
"&&&&&&&&&&&&&&#### ###               o       oo##&###&#########&",
"oo##ooo#####o#   o     #oo o    ooo o         ooo###&#####&&&&##",
"oooooooooooooo&#           o          oooo#ooooo #######oooo    "
};
