/* XPM */
static char *graphic[] = {
"64 64 27 1",
". c #203C56",
", c #0D2B45",
"- c #06131F",
"* c #544E68",
"a c #171A0F",
"b c #4E5332",
"c c #243117",
"d c #62784A",
"e c #BD7247",
"f c #80592D",
"g c #AB7B44",
"h c #CD9757",
"i c #9F8965",
"j c #302D21",
"k c #E6DAAD",
"l c #A47556",
"m c #84AE56",
"n c #E2B179",
"o c #3A1F1D",
"p c #FDFFD6",
"q c #3D3734",
"r c #364922",
"s c #B34D5C",
"t c #6B3840",
"u c #8D4953",
"v c #796E67",
"w c #9C8C81",
"............---,--,----.........------............---.-------...",
"...-.........------.......,.....................................",
"...,,........--,--.......,,..,...,,,,...,,,,,,,....,............",
".,,,,,,,,,,,.-----.d,,,,,,,,,,,,,,,,,,,,,,,,,,d,,,,,,,,,,,,,,,,,",
",,,,,,,,,,,,..----add,,-,,,,,,,,,,,,,,,,,,,,,dda,,,,,,,,,,,,,,,,",
",,,,,--,,,,,,.----abdd,--,,,,,,,,--,,,,,,,,,ddba,,,,,,,,,,,,,,,,",
",,,,,,,-,,,,,.---abbbdd,,,,,,,,,,,,,,,,,,,,ddbbba,,,,,,,,,,,,,,,",
",,,,,,,,,,,,,.---abbbddd,,,,,,,,,,,,,--,,,dddbbba,,,,,,,,,,,,,,,",
",,,,,,,,,-,,..---abbbbddd,,,,,,,,,,,,,,,,dddbbbba,,,,,,,,,,,,,,,",
",,,,,,,,,---,.--acbbbbbddd,,,,,,,,,,,,,,dddbbbbbca,,-,,,,,,,,,,,",
",,,,,,,,,,,,,.--acbbbbbddddddddddddddddddddbbbbbca,,-,,,,,,,,,,,",
",,,,,,-,,,,,..--acbbbbbbddddddddddddddddddbbbbbbca,,,,,,,,,,,,,,",
",,,,,,-,,,,,..--acbbbbbbddbbbbbbbbbbbbbbddbbbbbbca-,,,,,,,,,,,,,",
",,,,,--,,,,,..--acbbbcbdbbbbbbbbbbbbbbbbbbdbbbbbca,,,,,,,,,,,,,,",
",,,,,,,----..---accbcdbbbbbbbbbbbbbbbbbbbbbbcbbbca----,,,--,,,-,",
",-,---------.---acccdbbbbbbbbbbbbbbbbbbbbbbbdcbcca--------------",
"----------------acccdbbbbbbbbbbbbbbbbbbbbbbbbdccca--------------",
"-----------------acdbbbbbbbbddddddddddbbbbbbbdcca---------------",
"-----------------aabbbbbbbddqqqqiiiqqqddbbbbbbdaa---------------",
"-----------------abbbbbbddiiiqqiiiiiqqqqddbbbbbba---------------",
"----------------abbbbbbdeeiiiiiiiiiiiqqqqqdbbbbbba--------------",
"-...............abbbbbdeeiiikjjkkkkjjiqqqqqdbbbbba..-----------.",
"........---..,.abbbbbbdffgghkkkkkkkkkkvvqqqdbbbbbba...---.......",
"....,,,,,,,,,,abbbbbbbdeehhghkkkkkkkkkkvvqidbbbbbbba,.....,,.,..",
".,,,,,,,,,,,,abbbbbbbeehhjjmrpkkkkkkprmjjkkiabbbbbbba,,,,,,,,,,,",
",,,,,,,,,,,,accbbbbbafggggmmrmpkkkkpmrmmppkkiabbbbbcca,,,,,,,,,,",
",,,,,,,,,,,,,aaccbbbaehhhhnmrmmkkkkmmrmpkkkkiabbbccaa,--,,,,,,,,",
",,,,,,,,,,,,,,,aaccccafggghnkkkkppkkkkkkkkkiaccccaa,,,,,,,,,,,,,",
",--,,,,,,,,,,,,,,aacccaehhkkkkkkjjkkkkkkkkiacccaa,,,,,,,,,,,,,,,",
",,,,,,,,,,,,,,,,,,,aaaaaikkkkkkkkkkkkkkkkiaaaaa,,,,,,,,,,,-,,,,,",
",,,,,--,,,,,,,,,,,,,,,,,aaakkkkkkkkkkkkaaa,,,--,,,,,,,,,,,-,,,,,",
",,,,,,,,,,,,,--,,,,,--,,,,.aaaaaaaaaaaa,,,,,,,,,,,,,,,,,,-,-,,,,",
",,,,,,,,,,,,-,,,,,,,,,,,,,accottoottocca,,,,,,,,,,,,,,,,,-,,,,,,",
",,,,,,,,,,,,,,,,,,,,,,,,,accosutootusocca,,,,,,,kp,,,,,,-,,,,,,,",
",,,,,,,,,,,,,,,,,,,,,--,accossuoiioussocca,,,,,kkkp,,,,,,,,,,,,,",
",,,--,---,,,,,,,,,,----acccosutoiiotusoccca,,,,,kkp,,,,,,----,,,",
",---------,------,-----acccottoiiiiottoccca---,,ikk--,----------",
"----------------------abbbccooiikkieooccbbba----ikk-------------",
"----------------------abbbbcaiikkkkeeacbbbba----iki-------------",
"---------------------abbbbbaiikkkkkhefabbbbba--jkk--------------",
"---------------------abbbbaiikkkkkhhfeeabbbbajjiij--------------",
"--------------------abbbbbaikkkkkkgghhfabbbbbaiij---------------",
"--,.***.......-.,--,abbbbbakkkkkkkhhgghabbbbbaij-,..,,-,---,---,",
"*********.****,.....abbbbakkikkkkkkkhehhabbbbaj-,.,,,-,,,,,,,,,,",
"****...*.........,,acbbbbakkikkpiipkkikkabbbbca--,.,,,,..,.,,,.,",
"*......,......,,,,,acbbbbakkijkpiipkjikkabbbbca-,,..............",
".......,......,,,,accbbbbakkkjppjjppjkkkabbbbcca,,..............",
"..............,,,accbbbbbahkkijpjjpjikkkabbbbbcca,..............",
"...............,acbbbbbbafggkkijjjjikkkkiabbbbbcca..............",
"...............abbbbbcbbaehkkkkiiiikkkkkiabbcbbbbca.............",
".............aabbbbbbbbbalkkkkkkkkkkkkkkiabbbbbbbbbaa...........",
".........,.aabbbbcbbbbbbaikkkkkkkkkkkkkkiabbbbbbcbbbbaa.........",
".........-abbbbbbbbbcbbbaikkkkkkkkkvvkkkiabbbcbbbbbbbbba........",
".........abbbbbcbbbbbbbbaikkkkkkkvvvvkkkicbbbbbbbbcbbbbba.......",
"..........aabbcbbbbcbbbbcakkkkkppwwvvkkkacbbbbcbbbbcbbaa........",
"............aaccbbccbbbbcakkkkkiiqqvvvkkacbbbbccbbccaa....,.....",
"..............aacccccccccaikkkijjjjqvvkiacccccccccaa............",
"****...*....,...aaaccccccaiikkj..,.jvviiaccccccaaa**..**...*..,.",
"*........,,,,,,,,,,aaaaaa,jiiij,,,,jqqij,aaaaaa,.....***********",
"****************.........-jpppj-,,,jpppj,,---,,,,.********.*****",
"***************..........--jjj------jjj-----,,,...*************.",
"**************....-...---------------,-------,,..*...*.........*",
",,..,,,.....,.---,-----.,,-,----,,,-,---------,,,...*.....****..",
",,,,,,,,,,,,,,*.-----------,----------,,,,.,,,,,-.......,,,,----"
};
